<svg width="1069" height="204" viewBox="0 0 1069 204" fill="none" xmlns="http://www.w3.org/2000/svg">
<path d="M1067.77 103.723C1068.74 102.747 1068.74 101.164 1067.77 100.188L1051.86 84.2786C1050.88 83.3024 1049.3 83.3024 1048.32 84.2788C1047.35 85.2551 1047.35 86.8381 1048.32 87.8143L1062.46 101.956L1048.32 116.099C1047.35 117.075 1047.35 118.658 1048.32 119.634C1049.3 120.61 1050.88 120.61 1051.86 119.634L1067.77 103.723ZM24.0001 104.5L1066 104.456L1066 99.4557L23.9999 99.5L24.0001 104.5Z" fill="#4C4343"/>
<line x1="150.5" y1="102" x2="150.5" y2="193" stroke="#4C4343" stroke-width="5"/>
<line x1="487.5" y1="11" x2="487.5" y2="102" stroke="#4C4343" stroke-width="5"/>
<line x1="825.5" y1="102" x2="825.5" y2="193" stroke="#4C4343" stroke-width="5"/>
<ellipse cx="12" cy="102" rx="12" ry="11" fill="#4C4343"/>
<ellipse cx="151" cy="193" rx="12" ry="11" fill="#4C4343"/>
<ellipse cx="487" cy="11" rx="12" ry="11" fill="#4C4343"/>
<ellipse cx="826" cy="193" rx="12" ry="11" fill="#4C4343"/>
</svg>
